<?xml version="1.0" encoding="UTF-8"?>
<svg xmlns="http://www.w3.org/2000/svg" version="1.1" xmlns:xlink="http://www.w3.org/1999/xlink" viewBox="0 0 2000 2000">
  <defs>
    <style>
      .cls-1 { fill: #5aaceb; }
      .cls-2 { fill: #3c70c6; }
      .cls-3 { fill: #283f61; }
      .cls-4 { fill: #93c4b1; }
      .cls-5 { fill: #477572; }
      .cls-6 { display: none; }
    </style>
  </defs>
  <g>
    <g id="Ebene_2">
      <g>
        <path class="cls-5" d="M1332.3,1328.5c-1.8,91.4-77.3,164-168.6,162.2-17.7-.3-106.7-10.5-156.1-16.9,26.8,23.6,91.6,63.2,123,114.6,42.8,70.1,67.6,268.8,52.4,254.1-25.8-25-79.1-257.4-360.9-324.4-254.8-60.5-229.5-213.6-172.6-260.5,75.1-61.9,489-98.3,520.6-97.7,91.4,1.8,164,77.3,162.2,168.6Z"/>
        <path class="cls-4" d="M1014.3,1024.2c-34.8,20.1-79.2,8.2-99.3-26.6-20.1-34.8-8.2-79.2,26.6-99.3,15-8.7,131.9-92.1,268.8-98.3,177.1-8.1,361.8-165.4,385.8-171.7,23.1-6.1-91.3,181.2-285,231.5s-282.8,156.3-296.9,164.5Z"/>
        <path class="cls-2" d="M1327.2,1364.4c-21.3,88.9-110.5,143.7-199.4,122.4-88.9-21.3-143.7-110.5-122.4-199.4,6.9-28.9,28.2-212.2-117.7-253.4-166.9-47.2-257.9-50.6-355.2-31.9-38.8,7.4,97.9-291.2,465.9-190.8,438.2,119.6,338.5,512.6,328.8,553.2Z"/>
        <path class="cls-1" d="M1331,1341c-8.4,91-88.9,158-179.9,149.6-17.6-1.6-146.1-14.9-289.7-93.3,131.1,83,243.7,211.8,266,288.5,49.8,170.9,11.9,286.5-2.2,270.7-23.9-26.7-29-312.8-305.3-399.9-249.8-78.8-299.1-269.3-238.9-312,79.4-56.3,569-86.5,600.4-83.6,91,8.4,158,88.9,149.6,179.9Z"/>
        <circle class="cls-3" cx="511.8" cy="920.1" r="165.4"/>
        <path class="cls-1" d="M974.6,884.4c-15.3,63.9-79.4,103.3-143.3,88-63.9-15.3-103.3-79.4-88-143.3,6.7-27.8,70.1-243.9,194.3-348,142.4-119.5,205-411.5,236.5-438.1,21.7-18.3,30.4,248.9-92.4,443-117.9,186.5-100.9,372.4-107.1,398.4Z"/>
      </g>
    </g>
  </g>
</svg>
